<?xml version="1.0" encoding="UTF-8"?>
<svg id="Layer_1" data-name="Layer 1" xmlns="http://www.w3.org/2000/svg" viewBox="0 0 300 100">
  <defs>
    <style>
      .cls-1 {
        fill: #fff;
      }
    </style>
  </defs>
  <path class="cls-1" d="m51.4,65.03c.63.59,1.18,1.1,1.73,1.6,2.37,2.17,4.76,4.33,7.12,6.52.36.33.72.51,1.22.48.75-.04,1.51-.01,2.26,0,.49,0,.5,0,.5.48,0,.68,0,1.36,0,2.04,0,2.61,0,5.22,0,7.84,0,.13,0,.26,0,.39-.01.4-.01.42-.39.42-2.56,0-5.11,0-7.67,0-.22,0-.38-.07-.54-.22-.92-.93-1.88-1.82-2.76-2.77-1.41-1.53-2.92-2.95-4.39-4.42-.38-.38-.74-.77-1.13-1.14-2.84-2.62-5.56-5.35-8.25-8.12-2.06-2.12-4.13-4.24-6.28-6.27-2.37-2.23-4.61-4.58-6.96-6.84-.35-.33-.63-.72-.97-1.09.19-.15.39-.09.58-.09,4.47,0,8.94,0,13.41,0,3.92,0,7.84,0,11.75,0,.18,0,.37,0,.55-.02,1.08-.14,1.89-1.04,1.88-2.16-.02-2.64-.67-5.1-2.05-7.34-2.21-3.59-5.37-5.86-9.52-6.64-4.19-.79-8.01.2-11.36,2.82-2.89,2.26-4.61,5.25-5.23,8.86-.1.58-.17,1.16-.16,1.76,0,1.1-.01,2.21,0,3.31.03,1.9.83,3.47,2.12,4.82,2.81,2.94,5.61,5.88,8.42,8.82,3.79,3.98,7.59,7.96,11.38,11.94,1.37,1.44,2.74,2.88,4.11,4.31.11.12.25.21.31.39-.11.14-.27.08-.4.08-5.02,0-10.04,0-15.06,0-.39,0-.67-.08-.85-.45-.1-.19-.27-.35-.44-.49-.61-.53-1.06-1.21-1.65-1.76-.57-.53-1-1.17-1.57-1.68-.53-.48-.95-1.06-1.46-1.56-.56-.55-1.04-1.19-1.61-1.72-.55-.52-.97-1.15-1.53-1.64-.58-.52-1-1.17-1.57-1.68-.57-.52-1-1.18-1.57-1.68-.64-.56-1.08-1.31-1.72-1.84-.7-.58-1.11-1.41-1.85-1.94-1.04-1.38-2.1-2.74-2.96-4.24-.36-.63-.64-1.31-1.02-1.93-.27-.45-.38-.99-.57-1.48-1.39-3.51-1.84-7.16-1.62-10.9.07-1.16.25-2.3.47-3.44.19-.99.38-1.98.76-2.92.25-.62.46-1.24.73-1.85.53-1.19,1.14-2.33,1.79-3.44.43-.74,1-1.39,1.51-2.08.74-1,1.61-1.88,2.48-2.77.46-.47.95-.9,1.44-1.32.77-.67,1.61-1.27,2.48-1.81,2.75-1.69,5.69-2.88,8.87-3.44,1.76-.31,3.53-.48,5.32-.43,3.45.1,6.75.83,9.89,2.27,3.98,1.82,7.26,4.48,9.87,7.98,2.24,3.01,3.73,6.35,4.47,10.03.46,2.25.61,4.52.44,6.8-.11,1.52-.54,2.95-1.2,4.32-1.05,2.2-2.61,3.93-4.63,5.27-.98.66-2.06,1.1-3.17,1.48-1.17.4-2.4.47-3.75.61Z"/>
  <path class="cls-1" d="m99.22,45.9c.09,1.43.72,2.6,1.7,3.61,2.9,3.03,5.79,6.06,8.69,9.1,3.35,3.51,6.7,7.03,10.05,10.54.08.09.21.15.22.33-.13.07-.27.04-.41.04-3.86,0-7.72,0-11.59,0-.32,0-.55-.08-.76-.33-.55-.62-1.12-1.22-1.69-1.82-.6-.64-1.18-1.3-1.8-1.91-.48-.47-.91-.99-1.37-1.48-1.01-1.08-1.99-2.18-3.03-3.23-.67-.67-1.29-1.4-1.93-2.09-.76-.81-1.52-1.61-2.24-2.45-1.37-1.61-2.42-3.41-3.21-5.37-.74-1.81-1.15-3.68-1.33-5.62.04-.18.06-.36-.05-.52-.04-.83-.04-1.65,0-2.48.12-.2.09-.41.06-.63.24-2.75,1.04-5.32,2.37-7.73.71-1.29,1.58-2.46,2.52-3.58.46-.54,1-1,1.46-1.54.26-.3.62-.55.95-.79.86-.66,1.73-1.33,2.68-1.84,1.6-.85,3.26-1.56,5.04-1.96.91-.21,1.83-.39,2.76-.46.14.04.29.06.42-.05,1.05-.08,2.09-.07,3.13,0,.16.11.34.09.52.06.82.06,1.61.24,2.41.42,1.14.26,2.25.58,3.32,1.05,4.51,1.98,7.89,5.17,10.09,9.59,1.59,3.2,2.2,6.6,1.95,10.15-.09,1.22-.44,2.37-1,3.46-1.32,2.58-3.36,4.32-6.13,5.19-.9.28-1.82.42-2.76.43-.08.15.05.2.13.27,2.33,2.14,4.67,4.27,7,6.4.04.04.09.06.14.09.07.02.13.06.2.06.8,0,1.6,0,2.4-.01.09.15.05.32.05.49,0,2.57,0,5.15,0,7.72,0,.11,0,.22,0,.33,0,.13-.06.2-.2.2-.11,0-.22,0-.33,0-1.82,0-3.64,0-5.46,0-.34,0-.58-.09-.82-.34-2.18-2.18-4.38-4.36-6.57-6.53-.79-.78-1.62-1.54-2.4-2.34-.59-.61-1.31-1.09-1.81-1.81-.22-.32-.61-.52-.88-.81-2.66-2.76-5.4-5.45-8.13-8.15-1.06-1.05-2.13-2.07-3.2-3.11-.22-.22-.45-.42-.63-.68-.12-.17-.28-.33-.48-.43-.12.15-.06.3-.07.45-.01.01-.03.03-.03.03.01.03.03.05.04.08Zm12.06-13.49c-.1-.08-.21-.1-.34-.04-.44-.03-.87-.03-1.31,0-.08-.06-.16-.04-.23.03-.77.04-1.52.2-2.26.42-4.46,1.32-7.72,5.39-7.93,10.09-.09.1-.09.21-.02.33.03.66-.05,1.31.05,1.97.05.01.1.04.15.04,6.76,0,13.51,0,20.27,0,.18,0,.37.05.53-.09.88-.33,1.25-.85,1.23-1.8-.02-1.22-.21-2.42-.65-3.56-1.7-4.33-4.83-6.85-9.49-7.39Z"/>
  <path class="cls-1" d="m67.34,43.38c.05-.68.1-1.36.14-2.03.13-.2.1-.41.07-.63.02-.27.04-.53.05-.8.13-.23.09-.48.07-.73.01-.23.03-.47.04-.7.12-.2.09-.42.06-.63.04-.22-.09-.26-.26-.22-.3.07-.6.16-.9.24-.66.18-1.31.36-1.97.53-.4.11-.41.11-.52-.28-.47-1.73-.9-3.48-1.43-5.2-.36-1.18-.58-2.39-.95-3.56-.03-.08-.02-.18-.16-.28-.95.67-1.92,1.35-2.93,2.05-1.98-2.81-3.94-5.61-5.94-8.44-.72,1.01-1.4,1.98-2.13,3-2.77-1.96-5.52-3.9-8.33-5.88-.18.63-.34,1.2-.5,1.77-.12.44-.23.89-.36,1.33-.11.4-.12.4-.53.29-1.75-.48-3.5-.96-5.25-1.45-1.4-.38-2.79-.76-4.22-1.15-.08.43,0,.83.02,1.22-.06.12-.04.23.04.33.04.58.09,1.16.12,1.74,0,.13.08.3-.13.36,0,0-.03-.01-.03-.01l-.02.02c-.19.02-.38.04-.57.05-.08-.06-.16-.04-.23.03-.92.07-1.83.13-2.75.2-.09-.06-.16-.04-.23.03-.16,0-.32.01-.47.02,0,0-.03-.01-.03-.01l-.02.02c-.19.01-.39.03-.58.04-.15-.06-.3-.04-.44.05-.4.03-.8.06-1.2.09-.15-.07-.3-.05-.44.03-.33.02-.66.05-.99.07-.09-.06-.16-.04-.23.03-.4.03-.8.05-1.2.08-.19-.06-.37-.05-.55.04-.22.09-.06.22-.02.31.37.84.74,1.68,1.11,2.52.18.41.18.41-.23.59-2.82,1.25-5.63,2.51-8.45,3.76-.17.07-.35.12-.53.3.82.86,1.63,1.72,2.49,2.62-2.45,2.34-4.89,4.67-7.33,6.99.12.18.29.22.43.29.8.4,1.61.8,2.42,1.21.35.17.35.18.18.52-.35.71-.7,1.42-1.05,2.12-1.03,2.07-2.07,4.14-3.1,6.21-.08.16-.16.33-.24.51.48.19.94.2,1.41.22.12.11.26.09.41.06.47.05.95.11,1.42.16.26.02.38.12.35.41-.17,1.31-.33,2.62-.48,3.93-.21,1.75-.42,3.49-.63,5.24-.08.1-.11.2-.05.32-.06.33-.08.66.17.94.05.05.06.13.1.2.16.28.2.71.49.82.29.11.62-.15.93-.25.59-.19,1.18-.39,1.84-.61,1.09,3.26,2.18,6.5,3.28,9.79.98-.77,1.92-1.51,2.85-2.23.2.08.27.24.36.36,2.06,2.62,4.12,5.23,6.16,7.86.25.32.5.53.91.44.7-.15,1.15.2,1.59.7,1,1.13,2.05,2.21,3.07,3.31-.04.18-.17.12-.27.12-2.52,0-5.04,0-7.56,0-.24,0-.4-.05-.58-.28-1.64-2.03-3.32-4.03-4.99-6.03-.01-.01-.03-.02-.1-.05-.33.41-.67.83-1.01,1.26-.18.23-.38.45-.55.69-.17.25-.31.23-.53.05-.77-.63-1.55-1.24-2.32-1.86-.49-.39-1.07-.72-1.42-1.21-.33-.48-.42-1.13-.62-1.7-.55-1.64-1.07-3.29-1.66-4.91-.3-.81-.48-1.66-.85-2.51-.8.38-1.59.76-2.39,1.15-.29-.48-.52-.97-.75-1.46-.44-.93-.89-1.85-1.36-2.77-.14-.27-.21-.54-.16-.84.06-.4.1-.8.15-1.2.11-.12.09-.26.06-.41.02-.16.03-.32.05-.48.12-.16.09-.33.07-.51.16-1.38.32-2.75.49-4.13.09-.17.15-.35,0-.52-.19.02-.38.03-.57.05-.15-.05-.29-.04-.43.05-.52.06-1.04.12-1.55.18-.04-.01-.08-.03-.12-.04,0,0-.02-.03-.02-.03.02-.11.03-.21-.06-.3-.16-1.46-.32-2.92-.49-4.39-.03-.29,0-.54.14-.79.3-.58.59-1.16.87-1.75.13-.28.27-.55.37-.85.1-.32.33-.59.49-.89.47-.86.88-1.75,1.3-2.63.15-.32.13-.34-.22-.43-.66-.16-1.32-.32-1.98-.47-.24-.05-.34-.15-.27-.42.38-1.53.74-3.07,1.11-4.61.03-.11.08-.18.16-.26.83-.78,1.68-1.53,2.47-2.35.72-.75,1.57-1.36,2.24-2.17.2-.24.5-.42.75-.7-.66-.39-1.23-.88-1.92-1.18-.38-.17-.42-.31-.2-.65.69-1.06,1.38-2.12,2.07-3.18.14-.21.24-.44.38-.65.2-.3.56-.42.86-.55,1.31-.55,2.6-1.15,3.9-1.73.8-.35,1.59-.71,2.45-1.08-.26-.35-.49-.67-.73-.99-.2-.26-.4-.52-.6-.79-.24-.32-.24-.33.06-.56,1.2-.92,2.41-1.83,3.62-2.75.15-.12.31-.19.5-.18.31,0,.63.06.94-.08.34-.02.68-.04,1.03-.06.18.04.35.06.52-.05.27-.02.54-.03.8-.05.22.03.43.06.64-.06.27-.02.54-.03.8-.05.21.03.43.06.63-.06.27-.02.54-.03.81-.05.21.03.43.06.63-.05.2-.02.4-.04.64-.07-.26-.81-.5-1.59-.77-2.36-.08-.24-.07-.3.17-.38,1.45-.45,2.9-.91,4.34-1.37.23-.08.43-.04.67.02.88.2,1.75.44,2.63.68,1.19.32,2.38.65,3.58.98.16.04.31.08.46.16.28.17.42.07.44-.27.02-.37.03-.73.04-1.1.12-.22.07-.46.08-.69.02-.67-.03-.63.61-.61.16,0,.32-.02.48-.02.56.02,1.12.04,1.69.06.28.11.56.09.85.05,1.06-.11,1.93.24,2.78.89,1.49,1.14,3.05,2.18,4.58,3.26.15.1.3.2.44.3.19-.07.19-.24.25-.36.26-.63.52-1.26.76-1.89.09-.23.21-.25.42-.17,1.44.59,2.89,1.18,4.33,1.76.22.09.33.27.46.45,1.19,1.7,2.39,3.4,3.58,5.1.11.15.21.3.34.47.43-.37.78-.79,1.14-1.19.23-.25.46-.51.69-.77.13-.15.24-.2.41-.04,1.17,1.06,2.34,2.12,3.52,3.18.16.15.2.34.25.54.59,2.18,1.18,4.36,1.77,6.53.04.16.1.31.15.49.85-.37,1.59-.9,2.44-1.25.84,1.41,1.58,2.89,2.38,4.33.13.23.09.46.08.7-.07.07-.08.15-.03.23-.06.81-.12,1.61-.19,2.42-.09.14-.11.29-.05.44-.02.37-.05.73-.07,1.1-.08.1-.1.21-.04.33-.06.84-.12,1.68-.18,2.56.55.01,1.04-.12,1.54-.18.31-.04.62-.09.92-.15.23-.05.34.03.35.27.05.65.25,1.27.23,1.93,0,.31.17.65.21,1,.06.55.16,1.09.24,1.63,0,.11,0,.22-.01.33-.24.61-.53,1.2-.81,1.79-.22.46-.5.9-.65,1.4-.15.51-.44.98-.67,1.46-.3.63-.55,1.27-.87,1.89-.2.39-.16.44.27.53.77.16,1.54.31,2.34.47-.33,1.65-.65,3.27-.96,4.89-.03.18-.12.3-.24.42-3.16,3.21-6.32,6.42-9.47,9.63-.16.17-.32.27-.57.25-.44-.02-.91.08-1.31-.04-.41-.12-.67-.55-.98-.86-.26-.26-.56-.47-.84-.7-.36-.29-.6-.69-.93-1-.12-.11-.14-.2-.02-.32.11-.1.21-.21.31-.31,2.92-2.96,5.83-5.92,8.75-8.88.13-.13.29-.23.36-.45-.67-.3-1.35-.61-2.02-.91-.28-.13-.57-.25-.85-.37-.41-.18-.42-.2-.24-.6.29-.64.58-1.27.87-1.91,1-2.23,2.01-4.45,3.01-6.68.04-.1.13-.18.08-.32-.2-.09-.42-.04-.64-.07-.14-.09-.29-.11-.44-.05-.69-.05-1.39-.12-2.08-.15-.29-.01-.38-.09-.35-.39.1-1.13.18-2.26.27-3.39.13-.23.09-.48.07-.73Z"/>
  <path class="cls-1" d="m167.87,46.13c.02-.27.05-.53.07-.8.09-.09.08-.19.05-.3.11-1.04.32-2.07.74-3.02.4-.91.82-1.84,1.57-2.58,1.43-1.41,3.16-2.19,5.12-2.48.17.02.35.05.51-.07.05-.02.09-.04.14-.06,0,0,.05,0,.05,0h.05c.31.07.62.02.93.02,3.66,0,7.32,0,10.98,0,2.69,0,4.96,1,6.76,2.98,1.46,1.61,2.23,3.54,2.3,5.73.01.45,0,.46-.44.46-.9,0-1.8,0-2.7,0-5.43,0-10.85,0-16.28,0-.22,0-.44.02-.66.03-.14.42-.14,2.08.01,2.46.22,0,.44.02.66.02,4.83,0,9.67,0,14.5,0,1.2,0,2.38.14,3.52.55,1.42.52,2.63,1.34,3.64,2.46,1.22,1.37,1.88,2.99,2.06,4.79.19,1.83.2,3.67,0,5.5-.41,3.63-3.01,6.65-6.67,7.45-.72.16-1.45.24-2.19.24-4.14,0-8.27,0-12.41,0-.8,0-1.59-.09-2.34-.3-.51-.14-1.05-.3-1.55-.57-.57-.31-1.07-.73-1.63-1.05-.17-.09-.29-.26-.43-.39-.55-.5-1.05-1.04-1.49-1.64-.29-.4-.45-.87-.67-1.31-.45-.89-.66-1.84-.76-2.83,0-.35,0-.71,0-1.06.22-.07.44-.04.66-.04,6.58,0,13.16,0,19.74,0,.71,0,.66.09.66-.64,0-.55-.01-1.1,0-1.65,0-.27-.1-.37-.36-.34-.13.01-.26,0-.39,0-4.85,0-9.7,0-14.56,0-1.32,0-2.59-.22-3.83-.67-.7-.25-1.33-.65-1.94-1.04-.32-.21-.6-.52-.87-.81-.57-.61-1.15-1.22-1.64-1.91-.6-.84-.79-1.78-.91-2.76,0-.64,0-1.28,0-1.93,0-.83,0-1.65-.01-2.48Z"/>
  <path class="cls-1" d="m265.77,38.33c.4-.01.81-.04,1.21-.04,6.58,0,13.16.01,19.75-.01,1.85,0,3.6.33,5.21,1.22.89.49,1.66,1.16,2.3,1.96,1.42,1.77,2.04,3.8,2.03,6.05-.02,3.97,0,7.94,0,11.92,0,.13,0,.26,0,.39,0,.57-.04.54.54.54.61,0,1.21,0,1.82,0,.38,0,.39.01.39.4,0,1.53-.02,3.05-.03,4.58-.11.44-.1.87-.02,1.31,0,.85-.03,1.69-.02,2.54,0,.26-.07.35-.34.35-1.54-.01-3.09-.01-4.63,0-.26,0-.45-.11-.66-.24-1.74-1.08-3.47-2.16-5.21-3.24-.09-.06-.18-.14-.28-.17-.57-.14-.63-.54-.62-1.06.03-1.12,0-2.24-.01-3.36.01-.09.03-.18.03-.27,0-1.78-.01-3.56-.02-5.35,0-.11.02-.22-.06-.32-.02-2.46-.03-4.92-.05-7.38,0-.13,0-.26,0-.39.01-.21-.08-.3-.29-.29-.09,0-.18,0-.28,0-6.47,0-12.93,0-19.4,0-.15,0-.29.01-.44.02-.15.08-.1.22-.1.34,0,.5,0,.99,0,1.49,0,6.73,0,13.46,0,20.19-.42,0-.84.02-1.26.02-2.4,0-4.81,0-7.21,0-.2,0-.4.03-.6-.03,0-.11,0-.22,0-.33,0-7.01,0-14.03,0-21.04,0-.51,0-1.03,0-1.54-.03-.08-.1-.2-.07-.24.28-.4.17-.87.3-1.3.34-1.08.77-2.11,1.45-3.01.78-1.03,1.69-1.95,2.86-2.55,1.05-.53,2.13-.97,3.32-1.09.14.03.28.05.4-.05Z"/>
  <path class="cls-1" d="m253.54,67.73c0,.48,0,.96.03,1.43.02.29-.09.37-.37.37-2.35,0-4.71,0-7.06,0-2.94,0-5.88,0-8.82,0-1.67,0-3.35,0-5.02,0-.79,0-1.57-.08-2.36-.2-.54-.08-1.1-.17-1.56-.42-.52-.28-1.14-.41-1.58-.87-.21-.22-.46-.42-.76-.53-.03-.01-.07-.03-.09-.06-.4-.52-.97-.87-1.29-1.46-.17-.32-.35-.63-.61-.9-.21-.22-.19-.54-.32-.8-.35-.71-.47-1.49-.68-2.24-.01-.04.02-.1.03-.15.01-.17.05-.35-.07-.5-.09-1.4-.07-2.79.11-4.18.06-.43.31-.83.44-1.25.26-.86.74-1.62,1.24-2.34.34-.49.76-.95,1.25-1.35.53-.44,1.12-.78,1.68-1.18.45-.32,1-.47,1.52-.64,1.02-.34,2.07-.46,3.14-.46,2.85.01,5.7,0,8.55,0,.2,0,.4-.01.6-.02.2-.57.06-1.15.08-1.73,0-.04-.06-.08-.09-.12-.2,0-.4-.02-.61-.02-4.91,0-9.82,0-14.72,0-.6,0-.64.14-.58-.63.06-.87.15-1.74.47-2.58.54-1.43,1.33-2.7,2.47-3.71,1.5-1.32,3.27-2.05,5.26-2.24.8,0,1.61,0,2.41,0,2.05,0,4.09,0,6.14,0,1.21.08,2.34.43,3.42.99,1.98,1.04,3.4,2.58,4.23,4.66.5,1.25.78,2.53.77,3.89-.02,3.75,0,7.5,0,11.24,0,.69-.06.61.62.61.51,0,1.03,0,1.54,0,.49,0,.49,0,.5.46.02,1.14.04,2.28.05,3.42-.02.09-.05.18-.05.26,0,.97.02,1.95.03,2.92,0,.11,0,.22.06.32Zm-16.65-5.06c1.45,0,2.9,0,4.36,0,.28,0,.39-.07.38-.37-.02-.94-.03-1.87-.03-2.81,0-.23-.08-.33-.32-.33-.39.01-.77,0-1.16,0-2.48,0-4.96,0-7.44,0-.53,0-.53,0-.53.49,0,.86,0,1.73,0,2.59,0,.41,0,.42.44.42,1.43,0,2.87,0,4.3,0Z"/>
  <path class="cls-1" d="m135.66,58.28c.38-4.21,3.75-7.69,7.95-8.21.44-.05.88-.07,1.32-.07,2.88,0,5.77,0,8.65,0,.15,0,.29,0,.44,0,.14,0,.2-.07.2-.2,0-.5,0-.99,0-1.49,0-.13-.06-.2-.2-.2-.15,0-.29,0-.44,0-4.89,0-9.77,0-14.66,0-.2,0-.4-.01-.6-.02,0-.35,0-.7-.01-1.05.02-.13-.18-.24,0-.39.08-.07.08-.24.11-.36.35-1.94,1.37-3.75,2.89-5.08,1.52-1.34,3.29-2.11,5.31-2.26.11,0,.22.02.33.02,1.93,0,3.85,0,5.78,0,.75,0,1.5-.01,2.25-.02.2.02.39.04.59.05.08.09.18.08.29.06,1.36.22,2.58.75,3.7,1.55,1.33.96,2.32,2.19,3.02,3.68.61,1.3.87,2.66.87,4.08,0,3.73,0,7.45,0,11.18,0,.24,0,.48,0,.72-.04.06-.01.08.05.07.73,0,1.47.01,2.2.02.41,0,.42,0,.43.43.03,2.25.06,4.51.08,6.76-.1.17-.04.36-.05.54,0,.48,0,.95,0,1.43-2.26,0-4.52.03-6.78.03-4.39,0-8.78,0-13.17-.01-.7,0-1.4.02-2.09-.02-2.56-.14-4.73-1.11-6.4-3.09-1.27-1.5-1.91-3.24-2.04-5.19,0-.99,0-1.97,0-2.96Zm18.55,4.36c.2-.45.11-.92.04-1.38,0-.53-.01-1.07-.02-1.6q0-.49-.52-.5c-.07,0-.15,0-.22,0-2.54,0-5.08,0-7.61,0-.33,0-.74-.14-.96.06-.25.23-.08.66-.09,1-.02.7,0,1.4-.01,2.1,0,.27.09.37.35.34.11-.01.22,0,.33,0,2.41,0,4.82,0,7.23,0,.5,0,.99-.01,1.49-.02Z"/>
  <path class="cls-1" d="m214.13,60.24c.13.2.33.11.5.11,1.46.01,2.93.01,4.39.02.07.55-.07,1.11.04,1.66-.02.74-.05,1.48-.07,2.22-.1.5-.11,1.01-.04,1.52-.03,1.1-.05,2.2-.08,3.3-.01.46-.02.46-.46.46-2.17,0-4.33,0-6.5,0-.28,0-.48-.09-.67-.28-2.08-2.1-4.17-4.18-6.26-6.27,0-.22,0-.44,0-.66,0-11.67,0-23.34,0-35.01,0-.22,0-.44,0-.66.46-.32,1.01-.44,1.52-.56.55-.13,1.04-.39,1.57-.54.44-.13.88-.26,1.32-.39.56-.17,1.1-.4,1.66-.59.8-.28,1.6-.55,2.4-.82.08-.03.18-.02.27-.03.17.01.34.02.32.26,0,.16,0,.33,0,.5,0,11.71,0,23.42,0,35.14,0,.21-.07.44.08.64Z"/>
</svg>